HIERARCHY
ROOT Pelvis
{
	OFFSET 0.000000 0.000000 0.000000
	CHANNELS 6 Xposition Yposition Zposition Xrotation Yrotation Zrotation
	JOINT LeftUpLeg_virtual
	{
		OFFSET 0.000000 0.000000 0.000000
		CHANNELS 3 Xrotation Yrotation Zrotation
		JOINT LeftUpLeg
		{
			OFFSET 18.735201 -5.666702 -4.541200
			CHANNELS 3 Xrotation Yrotation Zrotation
			JOINT LeftLeg
			{
				OFFSET -0.021200 -31.938179 0.493100
				CHANNELS 3 Xrotation Yrotation Zrotation
				JOINT LeftFoot
				{
					OFFSET 0.021200 -31.938179 -4.336299
					CHANNELS 3 Xrotation Yrotation Zrotation
					JOINT LeftToeBase
					{
						OFFSET 0.943001 -26.722000 15.023500
						CHANNELS 3 Xrotation Yrotation Zrotation
						End Site
						{
							OFFSET 0 0 0
						}
					}
				}
			}
		}
	}
	JOINT RightUpLeg_virtual
	{
		OFFSET 0.000000 0.000000 0.000000
		CHANNELS 3 Xrotation Yrotation Zrotation
		JOINT RightUpLeg
		{
			OFFSET -18.735201 -5.666702 -4.541200
			CHANNELS 3 Xrotation Yrotation Zrotation
			JOINT RightLeg
			{
				OFFSET 0.018946 -31.938133 0.493100
				CHANNELS 3 Xrotation Yrotation Zrotation
				JOINT RightFoot
				{
					OFFSET -0.018946 -31.938126 -4.336299
					CHANNELS 3 Xrotation Yrotation Zrotation
					JOINT RightToeBase
					{
						OFFSET -0.943001 -26.722004 15.023500
						CHANNELS 3 Xrotation Yrotation Zrotation
						End Site
						{
							OFFSET 0 0 0
						}
					}
				}
			}
		}
	}
	JOINT Hips_virtual
	{
		OFFSET 0.000000 0.000000 0.000000
		CHANNELS 3 Xrotation Yrotation Zrotation
		JOINT Hips
		{
			OFFSET -0.000000 -0.000000 -0.000000
			CHANNELS 3 Xrotation Yrotation Zrotation
			JOINT Spine
			{
				OFFSET 0.000000 10.199997 -0.299500
				CHANNELS 3 Xrotation Yrotation Zrotation
				JOINT Spine1
				{
					OFFSET 0.000000 11.900002 -1.516600
					CHANNELS 3 Xrotation Yrotation Zrotation
					JOINT Spine2
					{
						OFFSET 0.000000 13.600006 -2.842500
						CHANNELS 3 Xrotation Yrotation Zrotation
						JOINT Neck_virtual
						{
							OFFSET 0.000000 0.000000 0.000000
							CHANNELS 3 Xrotation Yrotation Zrotation
							JOINT Neck
							{
								OFFSET 0.000000 9.624100 -2.890100
								CHANNELS 3 Xrotation Yrotation Zrotation
								JOINT Head
								{
									OFFSET 0.000000 14.068802 -1.351900
									CHANNELS 3 Xrotation Yrotation Zrotation
									End Site
									{
										OFFSET 0 0 0
									}
								}
							}
						}
						JOINT LeftShoulder_virtual
						{
							OFFSET 0.000000 0.000000 0.000000
							CHANNELS 3 Xrotation Yrotation Zrotation
							JOINT LeftShoulder
							{
								OFFSET 15.263000 10.923401 -0.547700
								CHANNELS 3 Xrotation Yrotation Zrotation
								JOINT LeftArm
								{
									OFFSET 25.438599 -2.830597 -13.032500
									CHANNELS 3 Xrotation Yrotation Zrotation
									JOINT LeftForeArm
									{
										OFFSET 29.960503 0.000000 0.000000
										CHANNELS 3 Xrotation Yrotation Zrotation
										JOINT LeftHand
										{
											OFFSET 27.849251 0.000000 0.000000
											CHANNELS 3 Xrotation Yrotation Zrotation
											End Site
											{
												OFFSET 0 0 0
											}
										}
									}
								}
							}
						}
						JOINT RightShoulder_virtual
						{
							OFFSET 0.000000 0.000000 0.000000
							CHANNELS 3 Xrotation Yrotation Zrotation
							JOINT RightShoulder
							{
								OFFSET -15.263000 10.923401 -0.547700
								CHANNELS 3 Xrotation Yrotation Zrotation
								JOINT RightArm
								{
									OFFSET -25.438599 -2.830597 -13.032500
									CHANNELS 3 Xrotation Yrotation Zrotation
									JOINT RightForeArm
									{
										OFFSET -29.960503 0.000000 0.000000
										CHANNELS 3 Xrotation Yrotation Zrotation
										JOINT RightHand
										{
											OFFSET -27.849251 0.000000 0.000000
											CHANNELS 3 Xrotation Yrotation Zrotation
											End Site
											{
												OFFSET 0 0 0
											}
										}
									}
								}
							}
						}
					}
				}
			}
		}
	}
}
MOTION
Frames: 6
Frame Time: 0.03333333
0.745481 92.503769 2.648718 0.000000 0.000000 0.000000 6.773742 -9.115917 -1.097486 -32.098494 8.993697 14.778265 36.125086 3.843451 -1.107002 -11.307740 4.479765 -4.479475 0.000000 0.000000 0.000000 8.266501 -11.656309 5.196358 -19.614638 -9.515283 -10.449702 27.625795 -5.101166 -1.557018 -20.744220 -8.408943 5.319278 0.000000 0.000000 0.000000 -2.105933 -4.800352 0.798854 -2.722858 7.128394 1.714939 5.342534 1.017729 -1.710700 1.588592 0.942378 -0.956250 0.000000 0.000000 0.000000 3.563575 0.925123 -0.304755 -0.204087 0.793242 -0.073344 0.000000 0.000000 0.000000 2.390582 -0.979190 -1.797435 0.325132 -9.140698 -13.058433 -4.675668 -17.145204 -44.614024 6.272154 -51.973314 2.580232 0.000000 0.000000 0.000000 3.040221 1.539772 0.250887 1.169751 12.913593 7.284638 -3.372457 29.919138 42.177183 14.726678 76.014364 -11.477563 0.000000 0.000000 0.000000 
0.758400 92.489136 2.653014 0.000000 0.000000 0.000000 6.723413 -9.183282 -1.106485 -32.173476 8.970592 14.774471 36.180827 3.899033 -1.111933 -11.249998 4.540555 -4.460487 0.000000 0.000000 0.000000 8.285028 -11.607723 5.210516 -19.575751 -9.507404 -10.420940 27.630185 -5.098372 -1.549725 -20.754771 -8.406131 5.323509 0.000000 0.000000 0.000000 -2.139168 -4.940460 0.802941 -2.735756 7.220981 1.675806 5.335270 0.967147 -1.731123 1.587847 0.929708 -0.948750 0.000000 0.000000 0.000000 3.577451 0.896326 -0.296828 -0.202479 0.789736 -0.073982 0.000000 0.000000 0.000000 2.386137 -1.011961 -1.808490 0.329117 -9.153598 -13.131573 -4.530819 -17.148477 -44.302690 6.401928 -51.916903 2.735095 0.000000 0.000000 0.000000 3.025574 1.533662 0.258383 1.187100 12.850309 7.349414 -3.328436 30.024050 42.234478 14.978084 76.306914 -11.703296 0.000000 0.000000 0.000000 
0.790056 92.465622 2.659829 0.000000 0.000000 0.000000 6.625593 -9.308160 -1.129514 -32.317894 8.928707 14.761362 36.292077 4.002729 -1.121990 -11.137936 4.654303 -4.425986 0.000000 0.000000 0.000000 8.318730 -11.516596 5.232666 -19.504481 -9.491688 -10.371698 27.649924 -5.086378 -1.536390 -20.765085 -8.393439 5.335069 0.000000 0.000000 0.000000 -2.203923 -5.213809 0.814462 -2.756460 7.408033 1.614568 5.322672 0.876130 -1.764902 1.591538 0.902822 -0.935446 0.000000 0.000000 0.000000 3.602502 0.841008 -0.283059 -0.198801 0.780804 -0.075914 0.000000 0.000000 0.000000 2.381037 -1.072682 -1.829780 0.338204 -9.171500 -13.266301 -4.273296 -17.137723 -43.734056 6.623887 -51.829750 3.006330 0.000000 0.000000 0.000000 3.006357 1.520071 0.273829 1.223308 12.724753 7.469295 -3.267234 30.212170 42.354816 15.446288 76.838556 -12.120013 0.000000 0.000000 0.000000 
0.849256 92.441719 2.665745 0.000000 0.000000 0.000000 6.486410 -9.470738 -1.173589 -32.521017 8.875961 14.731480 36.455233 4.141154 -1.137543 -10.980305 4.807056 -4.382525 0.000000 0.000000 0.000000 8.361364 -11.394817 5.252278 -19.412900 -9.468585 -10.316477 27.701772 -5.055537 -1.519620 -20.758757 -8.359936 5.357734 0.000000 0.000000 0.000000 -2.294993 -5.605398 0.839294 -2.773394 7.688634 1.558631 5.309533 0.761066 -1.801456 1.606601 0.859616 -0.919039 0.000000 0.000000 0.000000 3.634764 0.763129 -0.266896 -0.192354 0.763665 -0.080135 0.000000 0.000000 0.000000 2.380950 -1.153345 -1.859318 0.354289 -9.182608 -13.443939 -3.953455 -17.086415 -42.997875 6.880220 -51.749014 3.333941 0.000000 0.000000 0.000000 2.997921 1.497031 0.297294 1.280232 12.539841 7.626841 -3.233744 30.445066 42.548083 16.058429 77.522265 -12.656878 0.000000 0.000000 0.000000 
0.943555 92.424042 2.666262 0.000000 0.000000 0.000000 6.315776 -9.643646 -1.243478 -32.767600 8.822274 14.680112 36.660125 4.297773 -1.158876 -10.792523 4.981595 -4.338403 0.000000 0.000000 0.000000 8.405053 -11.258973 5.257158 -19.316248 -9.439324 -10.272727 27.800844 -4.997388 -1.503039 -20.721194 -8.295508 5.393400 0.000000 0.000000 0.000000 -2.402293 -6.090261 0.884081 -2.768931 8.053488 1.534841 5.304216 0.638813 -1.831640 1.637281 0.798924 -0.902188 0.000000 0.000000 0.000000 3.670815 0.667475 -0.252005 -0.182600 0.736248 -0.087521 0.000000 0.000000 0.000000 2.390932 -1.245203 -1.893569 0.379288 -9.176500 -13.644871 -3.620466 -16.970923 -42.192425 7.115921 -51.704150 3.659197 0.000000 0.000000 0.000000 3.014001 1.463033 0.327492 1.358414 12.301771 7.799980 -3.277290 30.675397 42.825423 16.704534 78.266926 -13.210786 0.000000 0.000000 0.000000 
1.075716 92.413414 2.657194 0.000000 0.000000 0.000000 6.127177 -9.798857 -1.338781 -33.039124 8.777054 14.607980 36.889807 4.456285 -1.185660 -10.595081 5.160748 -4.301376 0.000000 0.000000 0.000000 8.442264 -11.127723 5.235999 -19.229376 -9.405894 -10.257483 27.954704 -4.907903 -1.490170 -20.645142 -8.194787 5.441504 0.000000 0.000000 0.000000 -2.512546 -6.632426 0.953523 -2.724200 8.482636 1.559077 5.317887 0.521908 -1.851342 1.682707 0.721759 -0.886606 0.000000 0.000000 0.000000 3.708642 0.558939 -0.241210 -0.169554 0.698499 -0.098455 0.000000 0.000000 0.000000 2.413968 -1.340929 -1.927503 0.414115 -9.147796 -13.853186 -3.309227 -16.780851 -41.401940 7.294642 -51.704228 3.940671 0.000000 0.000000 0.000000 3.061429 1.417733 0.361447 1.456190 12.021013 7.965862 -3.437380 30.855981 43.194372 17.253895 79.001499 -13.663274 0.000000 0.000000 0.000000 
